<svg xmlns="http://www.w3.org/2000/svg" xmlns:svg="http://www.w3.org/2000/svg" id="svg8" width="80" height="80" version="1.1" viewBox="0 0 21.167 21.167"><metadata id="metadata5"/><g style="display:inline" id="layer2"><path id="rect4921" d="M 4,0 V 1 H 2 V 2 H 1 V 4 H 0 v 72 h 1 v 2 h 1 v 1 h 2 v 1 h 72 v -1 h 2 v -1 h 1 v -2 h 1 V 4 H 79 V 2 H 78 V 1 H 76 V 0 Z" transform="scale(0.26458333)" style="color:#000;display:inline;overflow:visible;visibility:visible;opacity:1;vector-effect:none;fill:#2f7f6f;fill-opacity:1;fill-rule:nonzero;stroke:none;stroke-width:41.71699905;stroke-linecap:round;stroke-linejoin:round;stroke-miterlimit:4;stroke-dasharray:none;stroke-dashoffset:0;stroke-opacity:1;marker:none;enable-background:accumulate"/><path id="rect834" d="M 20,2 V 4 H 14 V 6 H 10 V 8 H 8 v 2 H 6 v 4 H 4 v 6 H 2 v 40 h 2 v 6 h 2 v 4 h 2 v 2 h 2 v 2 h 4 v 2 h 6 v 2 h 40 v -2 h 6 v -2 h 4 v -2 h 2 v -2 h 2 v -4 h 2 v -6 h 2 V 20 H 76 V 14 H 74 V 10 H 72 V 8 H 70 V 6 H 66 V 4 H 60 V 2 Z m -6,18 h 10 v 4 H 12 v -2 h 2 z m 42,0 h 10 v 2 h 2 v 2 H 56 Z m -38,8 h 4 v 2 h -4 z m 40,0 h 4 v 2 h -4 z m -42,4 h 6 v 2 h 2 v 6 h -2 v 2 h -6 v -2 h -2 v -6 h 2 z m 6,2 h -4 v 4 h 4 z m 14,-2 h 2 v 6 h 4 v -6 h 2 v 8 h -2 v 2 h -4 v -2 h -2 z m 22,0 h 6 v 2 h 2 v 6 h -2 v 2 h -6 v -2 h -2 v -6 h 2 z m 0,2 v 4 h 4 V 34 Z M 14,44 h 8 v 2 h 2 v 4 h -2 v 2 h -8 v -2 h -2 v -4 h 2 z m 44,0 h 8 v 2 h 2 v 4 h -2 v 2 h -8 v -2 h -2 v -4 h 2 z m -26,2 h 2 v 2 h 12 v -2 h 2 v 4 h -2 v 2 H 34 v -2 h -2 z m 6,8 h 4 v 2 h -4 z" transform="scale(0.26458333)" style="color:#000;display:inline;overflow:visible;visibility:visible;opacity:1;vector-effect:none;fill:#cf0;fill-opacity:1;fill-rule:nonzero;stroke:none;stroke-width:41.71699905;stroke-linecap:round;stroke-linejoin:round;stroke-miterlimit:4;stroke-dasharray:none;stroke-dashoffset:0;stroke-opacity:1;marker:none;enable-background:accumulate"/></g></svg>