<svg xmlns="http://www.w3.org/2000/svg" xmlns:svg="http://www.w3.org/2000/svg" id="svg2985" width="16" height="16" version="1.1"><metadata id="metadata2990"/><g style="display:inline;opacity:1" id="layer2"><path id="rect821" d="M 7.9980469,2 C 7.7422441,2.0001432 7.487135,2.0992225 7.2910156,2.2949219 L 2.2929688,7.2832031 C 2.0938184,7.481927 1.9970696,7.7408162 2,8 1.99706,8.2592033 2.0938028,8.5180579 2.2929688,8.7167969 l 4.9980468,4.9902341 c 0.3922387,0.391399 1.0222639,0.39096 1.4140625,0 0.3917988,-0.390959 0.3922387,-1.02071 0,-1.412109 L 5.4042969,9 H 13 C 13.554,9 14,8.554 14,8 14,7.446 13.554,7 13,7 H 5.4042969 L 8.7050781,3.7050781 c 0.3922387,-0.3913987 0.3917988,-1.0211497 0,-1.4121093 C 8.5091789,2.0974888 8.2538497,1.9998568 7.9980469,2 Z" style="color:#000;display:inline;overflow:visible;visibility:visible;opacity:1;vector-effect:none;fill:#000;fill-opacity:1;fill-rule:nonzero;stroke:none;stroke-width:1.00000072;stroke-linecap:round;stroke-linejoin:round;stroke-miterlimit:4;stroke-dasharray:none;stroke-dashoffset:0;stroke-opacity:1;marker:none;paint-order:normal;enable-background:accumulate"/></g></svg>