<svg xmlns="http://www.w3.org/2000/svg" xmlns:svg="http://www.w3.org/2000/svg" id="svg3870" width="16" height="16" version="1.1"><metadata id="metadata3875"/><g style="opacity:1" id="layer2"><path id="path815" d="M 8,1 C 5.790861,1 4,2.790861 4,5 4.0039139,6.4251392 4.7657855,7.7405581 6,8.453125 V 14 c 0,0.554 0.446,1 1,1 H 8 8.75 C 8.8885,15 9,14.8885 9,14.75 V 14 H 9.75 C 9.8885,14 10,13.8885 10,13.75 v -0.5 C 10,13.1115 9.8885,13 9.75,13 H 9 V 12 H 9.75 C 9.8885,12 10,11.8885 10,11.75 v -0.5 C 10,11.1115 9.8885,11 9.75,11 H 9 V 10 H 9.75 C 9.8885,10 10,9.8885 10,9.75 V 8.4589844 C 11.236022,7.7453681 11.998173,6.4272338 12,5 12,2.790861 10.209139,1 8,1 Z M 7.5,2 h 1 C 8.777,2 9,2.223 9,2.5 v 1 C 9,3.777 8.777,4 8.5,4 h -1 C 7.223,4 7,3.777 7,3.5 v -1 C 7,2.223 7.223,2 7.5,2 Z M 7.25,8 h 0.5 C 7.8885,8 8,8.1115 8,8.25 v 5.5 C 8,13.8885 7.8885,14 7.75,14 H 7.25 C 7.1115,14 7,13.8885 7,13.75 V 8.25 C 7,8.1115 7.1115,8 7.25,8 Z" style="color:#000;display:inline;overflow:visible;visibility:visible;opacity:1;vector-effect:none;fill:#000;fill-opacity:1;fill-rule:nonzero;stroke:none;stroke-width:1;stroke-linecap:round;stroke-linejoin:round;stroke-miterlimit:4;stroke-dasharray:none;stroke-dashoffset:0;stroke-opacity:1;marker:none;paint-order:normal;enable-background:accumulate"/></g></svg>