<svg xmlns="http://www.w3.org/2000/svg" xmlns:svg="http://www.w3.org/2000/svg" id="svg2985" width="16" height="16" version="1.1"><metadata id="metadata2990"/><g style="display:inline;opacity:1" id="layer2"><path id="rect815" d="M 1,2 C 0.446,2 0,2.446 0,3 v 10 c 0,0.554 0.446,1 1,1 h 14 c 0.554,0 1,-0.446 1,-1 V 3 C 16,2.446 15.554,2 15,2 Z m 0.5,1 h 13 C 14.777,3 15,3.223 15,3.5 V 5 H 1 V 3.5 C 1,3.223 1.223,3 1.5,3 Z M 1,8 h 14 v 4.5 C 15,12.777 14.777,13 14.5,13 H 1.5 C 1.223,13 1,12.777 1,12.5 Z m 1.25,3 C 2.1115,11 2,11.1115 2,11.25 v 0.5 C 2,11.8885 2.1115,12 2.25,12 h 1.5 C 3.8885,12 4,11.8885 4,11.75 v -0.5 C 4,11.1115 3.8885,11 3.75,11 Z m 3,0 C 5.1115,11 5,11.1115 5,11.25 v 0.5 C 5,11.8885 5.1115,12 5.25,12 h 2.5 C 7.8885,12 8,11.8885 8,11.75 v -0.5 C 8,11.1115 7.8885,11 7.75,11 Z" style="color:#000;display:inline;overflow:visible;visibility:visible;opacity:1;vector-effect:none;fill:#000;fill-opacity:1;fill-rule:nonzero;stroke:none;stroke-width:1;stroke-linecap:round;stroke-linejoin:round;stroke-miterlimit:4;stroke-dasharray:none;stroke-dashoffset:0;stroke-opacity:1;marker:none;paint-order:normal;enable-background:accumulate"/></g></svg>