<svg xmlns="http://www.w3.org/2000/svg" xmlns:svg="http://www.w3.org/2000/svg" id="svg2985" width="16" height="16" version="1.1"><metadata id="metadata2990"/><g style="display:inline;opacity:1" id="layer2"><path style="display:inline;opacity:1;fill:#000;stroke-width:4;stroke-linecap:round;stroke-linejoin:round;stop-color:#000" id="path865-6" d="M 10,2 A 6,6 0 0 0 6.6210938,3.0429688 c 0.7120798,0.087838 1.3693092,0.3341997 1.9550781,0.6875 A 4.5,4.5 0 0 1 10,3.5 4.5,4.5 0 0 1 14.5,8 4.5,4.5 0 0 1 10,12.5 4.5,4.5 0 0 1 5.5,8 4.5,4.5 0 0 1 5.6132812,7 H 4.0839844 A 6,6 0 0 0 4,8 6,6 0 0 0 10,14 6,6 0 0 0 16,8 6,6 0 0 0 10,2 Z M 2.8925781,2.00586 C 2.7319286,1.8561381 0,4.7005574 0,5 0,5.2994426 2.7319286,8.1438608 2.8925781,7.9941406 2.9529901,7.9378406 2.9850246,7.0338918 3,6 h 3 c 1.7043503,0 3.18557,0.9065449 4,2.2636719 V 8 C 10,5.783902 8.2160993,4 6,4 H 3 C 2.9850241,2.9661081 2.9529903,2.0621622 2.8925781,2.00586 Z"/></g></svg>