<svg xmlns="http://www.w3.org/2000/svg" xmlns:svg="http://www.w3.org/2000/svg" id="svg2985" width="16" height="16" version="1.1"><metadata id="metadata2990"/><g style="display:inline" id="layer2"><path id="rect815" d="M 2,6 C 0.892,6 0,6.892 0,8 0,9.108 0.892,10 2,10 3.108,10 4,9.108 4,8 4,6.892 3.108,6 2,6 Z M 8,6 C 6.892,6 6,6.892 6,8 6,9.108 6.892,10 8,10 9.108,10 10,9.108 10,8 10,6.892 9.108,6 8,6 Z m 6,0 c -1.108,0 -2,0.892 -2,2 0,1.108 0.892,2 2,2 1.108,0 2,-0.892 2,-2 0,-1.108 -0.892,-2 -2,-2 z" style="opacity:1;fill:#000;fill-opacity:1;stroke:none;stroke-width:7.5;stroke-linecap:round;stroke-miterlimit:4;stroke-dasharray:none;stroke-opacity:1"/></g></svg>