<svg xmlns="http://www.w3.org/2000/svg" xmlns:svg="http://www.w3.org/2000/svg" id="svg2985" width="16" height="16" version="1.1"><metadata id="metadata2990"/><g id="layer2"><path id="rect815" d="M 11.25,4 C 11.1115,4 11,4.1115 11,4.25 V 7.2382812 C 9.8272732,6.0236615 7.3357169,3.855335 7.1660156,4.0078125 7.0704203,4.0937055 7.025048,5.6059812 7.0117188,7.25 5.8447452,6.0381576 3.3363627,3.8547547 3.1660156,4.0078125 c -0.2221686,0.1996198 -0.2221687,7.7847555 0,7.9843755 C 3.3363627,12.145245 5.8447453,9.9618426 7.0117188,8.75 c 0.013329,1.644019 0.058702,3.156295 0.1542968,3.242188 C 7.3357169,12.144665 9.8272732,9.9763387 11,8.7617188 V 11.75 c 0,0.1385 0.1115,0.25 0.25,0.25 h 1.5 C 12.8885,12 13,11.8885 13,11.75 V 4.25 C 13,4.1115 12.8885,4 12.75,4 Z" style="opacity:1;fill:#000;fill-opacity:1;stroke:none;stroke-width:7.5;stroke-linecap:round;stroke-miterlimit:4;stroke-dasharray:none;stroke-opacity:1"/></g></svg>