<svg xmlns="http://www.w3.org/2000/svg" xmlns:svg="http://www.w3.org/2000/svg" id="svg2985" width="16" height="16" version="1.1"><metadata id="metadata2990"/><g style="display:inline;opacity:1" id="layer2"><path id="path815" d="m 14,1 c 0,0 0,2 -2,2 H 9 C 7,3 6,5 6,5 V 3 C 6,3 4,4 4,5 4,6 4,6 3,7 c -0.7071068,0.7071068 -2.35918448,3.640816 0,6 2,2 6,2 8,0 1,-1 0.299,-2.6495 1,-3 2,-1 2,-3 2,-3 h -3 c 0,0 0,-1 1,-1 2,0 3,-2 2,-5 z M 10,6 C 8,7 8,9 8,9 8,9 9,8 10,8 v 3 C 10,12 8.9659258,12.741181 8,13 6,13.535898 4,13 4,10 4,8.6354025 5,7.5773503 6,7 7.7320508,6 10,6 10,6 Z" style="fill:#000;stroke:none;stroke-width:1px;stroke-linecap:butt;stroke-linejoin:miter;stroke-opacity:1"/></g></svg>