<svg xmlns="http://www.w3.org/2000/svg" xmlns:svg="http://www.w3.org/2000/svg" id="svg2985" width="16" height="16" version="1.1"><metadata id="metadata2990"/><g style="opacity:1" id="layer2"><path id="rect815" d="M 1.5,3 C 1.223,3 1,3.223 1,3.5 V 6 H 9 C 9,5.446 9.446,5 10,5 h 5 V 4.25 C 15,4.1115 14.8885,4 14.75,4 H 7 V 3.5 C 7,3.223 6.777,3 6.5,3 Z m 9,3 C 10.223,6 10,6.223 10,6.5 V 7 H 1.25 C 1.1115,7 1,7.1115 1,7.25 v 5.5 C 1,12.8885 1.1115,13 1.25,13 h 13.5 C 14.8885,13 15,12.8885 15,12.75 V 6.5 C 15,6.223 14.777,6 14.5,6 Z" style="opacity:1;vector-effect:none;fill:#000;fill-opacity:1;stroke:none;stroke-width:5;stroke-linecap:round;stroke-linejoin:round;stroke-miterlimit:4;stroke-dasharray:none;stroke-dashoffset:0;stroke-opacity:1"/></g></svg>