<svg xmlns="http://www.w3.org/2000/svg" xmlns:svg="http://www.w3.org/2000/svg" id="svg2985" width="16" height="16" version="1.1"><metadata id="metadata2990"/><g style="opacity:1" id="layer2"><path id="path815" d="M 9,0 C 8.446,0 8,0.446 8,1 V 3 L 6,5 h 2 v 1 c 0,0.554 0.446,1 1,1 h 6 c 0.554,0 1,-0.446 1,-1 V 1 C 16,0.446 15.554,0 15,0 Z M 2,2 A 2,2 0 0 0 0,4 2,2 0 0 0 2,6 2,2 0 0 0 4,4 2,2 0 0 0 2,2 Z M 2,6 H 1 C 0.446,6 0,6.446 0,7 H 4 C 4,6.446 3.554,6 3,6 Z m 8.25,-4 h 3.5 C 13.8885,2 14,2.1115 14,2.25 v 0.5 C 14,2.8885 13.8885,3 13.75,3 h -3.5 C 10.1115,3 10,2.8885 10,2.75 V 2.25 C 10,2.1115 10.1115,2 10.25,2 Z m 0,2 h 3.5 C 13.8885,4 14,4.1115 14,4.25 v 0.5 C 14,4.8885 13.8885,5 13.75,5 h -3.5 C 10.1115,5 10,4.8885 10,4.75 V 4.25 C 10,4.1115 10.1115,4 10.25,4 Z M 9,9 C 8.446,9 8,9.446 8,10 v 2 l -2,2 h 2 v 1 c 0,0.554 0.446,1 1,1 h 6 c 0.554,0 1,-0.446 1,-1 V 10 C 16,9.446 15.554,9 15,9 Z m -7,2 a 2,2 0 0 0 -2,2 2,2 0 0 0 2,2 2,2 0 0 0 2,-2 2,2 0 0 0 -2,-2 z m 0,4 H 1 C 0.446,15 0,15.446 0,16 H 4 C 4,15.446 3.554,15 3,15 Z m 8.25,-4 h 3.5 c 0.1385,0 0.25,0.1115 0.25,0.25 v 0.5 C 14,11.8885 13.8885,12 13.75,12 h -3.5 C 10.1115,12 10,11.8885 10,11.75 v -0.5 C 10,11.1115 10.1115,11 10.25,11 Z m 0,2 h 3.5 c 0.1385,0 0.25,0.1115 0.25,0.25 v 0.5 C 14,13.8885 13.8885,14 13.75,14 h -3.5 C 10.1115,14 10,13.8885 10,13.75 v -0.5 C 10,13.1115 10.1115,13 10.25,13 Z" style="opacity:1;vector-effect:none;fill:#000;fill-opacity:1;stroke:none;stroke-width:5;stroke-linecap:round;stroke-linejoin:round;stroke-miterlimit:4;stroke-dasharray:none;stroke-dashoffset:0;stroke-opacity:1"/></g></svg>