<svg xmlns="http://www.w3.org/2000/svg" xmlns:svg="http://www.w3.org/2000/svg" id="svg2985" width="16" height="16" version="1.1"><metadata id="metadata2990"/><g id="layer2"><path id="rect819" d="M 11,1 C 9.8954305,1 9,1.8954305 9,3 9.0006484,3.574405 9.248235,4.1208031 9.6796875,4.5 L 12.5,7 15.320312,4.5 C 15.751765,4.1208031 15.999351,3.5744051 16,3 16,1.8954305 15.104569,1 14,1 13.425595,1.0006484 12.879197,1.248235 12.5,1.6796875 12.120803,1.248235 11.574405,1.0006484 11,1 Z M 5,5 c -2.77,0 -5,2.23 -5,5 0,2.77 2.23,5 5,5 2.77,0 5,-2.23 5,-5 C 10,7.23 7.77,5 5,5 Z M 3,8 C 3.5522847,8 4,8.4477153 4,9 4,9.5522847 3.5522847,10 3,10 2.4477153,10 2,9.5522847 2,9 2,8.4477153 2.4477153,8 3,8 Z M 7,8 C 7.5522847,8 8,8.4477153 8,9 8,9.5522847 7.5522847,10 7,10 6.4477153,10 6,9.5522847 6,9 6,8.4477153 6.4477153,8 7,8 Z m -4.5,3 h 5 C 7.777,11 8,11.223 8,11.5 8,12.328427 6.6568542,13 5,13 3.3431458,13 2,12.328427 2,11.5 2,11.223 2.223,11 2.5,11 Z" style="opacity:1;vector-effect:none;fill:#000;fill-opacity:1;stroke:none;stroke-width:5;stroke-linecap:round;stroke-linejoin:round;stroke-miterlimit:4;stroke-dasharray:none;stroke-dashoffset:0;stroke-opacity:1"/></g></svg>