<svg xmlns="http://www.w3.org/2000/svg" xmlns:svg="http://www.w3.org/2000/svg" id="svg2987" width="16" height="16" version="1.1"><metadata id="metadata2992"/><g id="layer1"><path id="rect4232" d="M 4,0 4,2 3,2 3,4 2,4 2,6 0.99999999,6 l 0,2 L 0,8 l 0,2 6,0 0,2 -1,0 0,2 -1,0 0,2 1,0 0,-1 1,0 0,-1 1,0 0,-1 1,0 0,-1 1,0 0,-1 1,0 0,-1 1,0 0,-1 1,0 0,-1 1,0 0,-1 1,0 0,-1 1,0 0,-1 -3,0 0,-1 1,0 0,-1 1,0 0,-1 1,0 0,-1.00000002 1,0 L 16,0 z m 1,2 7,0 0,1 -1,0 0,1 -1,0 0,1 L 9,5 9,6 8,6 8,7 9,7 9,8 8,8 8,7 7,7 7,8 6,8 6,7 5,7 5,8 4,8 4,7 3,7 3,6 4,6 4,4 5,4 z M 4,6 4,7 5,7 5,6 z M 6,7 7,7 7,6 6,6 z m 4,0 1,0 0,1 -1,0 z" style="color:#000;fill:#000;fill-opacity:1;fill-rule:nonzero;stroke:none;stroke-width:8;marker:none;visibility:visible;display:inline;overflow:visible;enable-background:accumulate"/></g></svg>