<svg xmlns="http://www.w3.org/2000/svg" xmlns:svg="http://www.w3.org/2000/svg" id="svg2985" width="16" height="16" version="1.1"><metadata id="metadata2990"/><g id="layer2"><path id="path865" d="M 5.2148438,1.75 C 2.7613897,1.7493456 0.74998087,3.7391408 0.75,6.1816406 c 9.24e-6,1.1792218 0.475034,2.3087092 1.3144531,3.140625 L 7.3085938,14.519531 C 7.4918962,14.701195 7.7453501,14.804688 8,14.804688 c 0.2546086,0 0.5080706,-0.10346 0.6914062,-0.285157 L 13.935547,9.3222656 C 14.774966,8.4903496 15.249991,7.3608624 15.25,6.1816406 15.250019,3.7391407 13.23861,1.7493456 10.785156,1.75 9.7431777,1.7502779 8.7938695,2.1899992 8,2.8398438 7.2061305,2.1899992 6.2568224,1.7502779 5.2148438,1.75 Z m 0,1.5 c 0.8531313,2.419e-4 1.6627732,0.3640057 2.2246093,0.9960938 0.2983141,0.3356154 0.8227797,0.3356154 1.1210938,0 C 9.122383,3.6140057 9.932025,3.2502419 10.785156,3.25 12.435014,3.2495321 13.750014,4.5571577 13.75,6.1816406 c -6e-6,0.7775932 -0.312482,1.5224605 -0.869141,2.0742188 L 8,13.09375 3.1191406,8.2558594 C 2.5624811,7.7041005 2.2500063,6.9592339 2.25,6.1816406 2.2499867,4.5571577 3.5649857,3.2495321 5.2148438,3.25 Z" style="color:#000;font-style:normal;font-variant:normal;font-weight:400;font-stretch:normal;font-size:medium;line-height:normal;font-family:sans-serif;font-variant-ligatures:normal;font-variant-position:normal;font-variant-caps:normal;font-variant-numeric:normal;font-variant-alternates:normal;font-variant-east-asian:normal;font-feature-settings:normal;font-variation-settings:normal;text-indent:0;text-align:start;text-decoration:none;text-decoration-line:none;text-decoration-style:solid;text-decoration-color:#000;letter-spacing:normal;word-spacing:normal;text-transform:none;writing-mode:lr-tb;direction:ltr;text-orientation:mixed;dominant-baseline:auto;baseline-shift:baseline;text-anchor:start;white-space:normal;shape-padding:0;shape-margin:0;inline-size:0;clip-rule:nonzero;display:inline;overflow:visible;visibility:visible;opacity:1;isolation:auto;mix-blend-mode:normal;color-interpolation:sRGB;color-interpolation-filters:linearRGB;solid-color:#000;solid-opacity:1;vector-effect:none;fill:#000;fill-opacity:1;fill-rule:nonzero;stroke:none;stroke-width:1.5;stroke-linecap:round;stroke-linejoin:round;stroke-miterlimit:4;stroke-dasharray:none;stroke-dashoffset:0;stroke-opacity:1;color-rendering:auto;image-rendering:auto;shape-rendering:auto;text-rendering:auto;enable-background:accumulate;stop-color:#000;stop-opacity:1"/></g></svg>