<svg xmlns="http://www.w3.org/2000/svg" xmlns:svg="http://www.w3.org/2000/svg" id="svg2985" width="16" height="16" version="1.1"><metadata id="metadata2990"/><g style="opacity:1" id="layer2"><path id="path815" d="M 8,3 C 6.3431458,3 5,4.3431458 5,6 5,6.1385 5.1115,6.25 5.25,6.25 h 1.5 C 6.8885,6.25 7,6.1385 7,6 7,5.4477153 7.4477153,5 8,5 8.5522847,5 9,5.4477153 9,6 9,6.5522847 8.5522847,7 8,7 7.4477153,7 7,7.4477153 7,8 V 9.75 C 7,9.8885 7.1115,10 7.25,10 h 1.5 C 8.8885,10 9,9.8885 9,9.75 V 8.8242188 C 10.197184,8.4009516 10.998218,7.2698042 11,6 11,4.3431458 9.6568542,3 8,3 Z m 0,8 c -0.5522847,0 -1,0.447715 -1,1 0,0.552285 0.4477153,1 1,1 0.5522847,0 1,-0.447715 1,-1 0,-0.552285 -0.4477153,-1 -1,-1 z" style="opacity:1;vector-effect:none;fill:#000;fill-opacity:1;stroke:none;stroke-width:5;stroke-linecap:round;stroke-linejoin:round;stroke-miterlimit:4;stroke-dasharray:none;stroke-dashoffset:0;stroke-opacity:1"/></g></svg>