<svg xmlns="http://www.w3.org/2000/svg" xmlns:svg="http://www.w3.org/2000/svg" id="svg2985" width="16" height="16" version="1.1"><metadata id="metadata2990"/><g style="display:inline;opacity:1" id="layer4"><path id="path4578" d="M 9.1835938,1 C 6.2216455,1 -0.31557974,3.9689631 0.01171875,6.2675781 0.2983589,8.2806501 2.847088,5.9108754 5.6816406,6.3378906 9.4960818,6.9125226 6.2230796,15 10.458984,15 12.62471,15 15.5,9.3258229 15.5,5.9707031 15.5,5.0670363 15.122168,4.0928579 14.419922,3.2460938 14.510405,2.9104172 14.52695,2.6489667 14.496094,2.4609375 15.398321,2.0011631 16,2.03125 16,2.03125 V 1.59375 C 15.475853,1.5687906 14.721179,1.9724537 14.378906,2.1640625 14.277175,2.0061205 14.15625,1.9375 14.15625,1.9375 L 13.357422,2.2578125 C 12.310015,1.5051604 10.903693,1 9.1835938,1 Z" style="fill:#000;stroke:none;stroke-width:1px;stroke-linecap:butt;stroke-linejoin:miter;stroke-opacity:1"/></g></svg>