<svg xmlns="http://www.w3.org/2000/svg" xmlns:svg="http://www.w3.org/2000/svg" id="svg2985" width="16" height="16" version="1.1"><metadata id="metadata2990"/><g style="display:inline" id="layer3"><path id="rect815-7" d="M 4,2 C 3.446,2 3,2.446 3,3 2.446,3 2,3.446 2,4 2,4.554 2.446,5 3,5 V 6 C 2.4477153,6 2,6.4477153 2,7 v 6 c 0,0.552285 0.4477153,1 1,1 h 10 c 0.552285,0 1,-0.447715 1,-1 V 7 C 14,6.4477153 13.552285,6 13,6 V 5 C 13.554,5 14,4.554 14,4 14,3.446 13.554,3 13,3 13,2.446 12.554,2 12,2 Z m 0,3 h 8 v 1 c 0,0.5522847 0.447715,1 1,1 v 6 H 3 V 7 C 3.5522847,7 4,6.5522847 4,6 Z M 4.5,8 C 4.223,8 4,8.223 4,8.5 v 3 C 4,11.777 4.223,12 4.5,12 h 7 c 0.277,0 0.5,-0.223 0.5,-0.5 v -3 C 12,8.223 11.777,8 11.5,8 Z" style="opacity:1;vector-effect:none;fill:#000;fill-opacity:1;stroke:none;stroke-width:1;stroke-linecap:round;stroke-linejoin:round;stroke-miterlimit:4;stroke-dasharray:none;stroke-dashoffset:0;stroke-opacity:1"/></g></svg>