<svg xmlns="http://www.w3.org/2000/svg" xmlns:svg="http://www.w3.org/2000/svg" id="svg2985" width="16" height="16" version="1.1"><metadata id="metadata2990"/><g id="layer2"><path id="rect817" d="M 8,2 C 6.338,2 5,3.338 5,5 V 7 H 4.25 C 4.1115,7 4,7.1115 4,7.25 v 6.5 C 4,13.8885 4.1115,14 4.25,14 h 7.5 C 11.8885,14 12,13.8885 12,13.75 V 7.25 C 12,7.1115 11.8885,7 11.75,7 H 11 V 5 C 11,3.338 9.662,2 8,2 Z m 0,1 c 1.108,0 2,0.892 2,2 V 7 H 6 V 5 C 6,3.892 6.892,3 8,3 Z" style="opacity:1;vector-effect:none;fill:#000;fill-opacity:1;stroke:none;stroke-width:1;stroke-linecap:round;stroke-linejoin:round;stroke-miterlimit:4;stroke-dasharray:none;stroke-dashoffset:0;stroke-opacity:1"/></g></svg>