<svg xmlns="http://www.w3.org/2000/svg" xmlns:svg="http://www.w3.org/2000/svg" id="svg2" width="16" height="16" version="1.1"><metadata id="metadata7"/><g id="layer2"><path id="rect815" d="M 5,1 C 4.446,1 4,1.446 4,2 v 1 h 8 v 1 8 1 H 4 v 1 c 0,0.554 0.446,1 1,1 h 8 c 0.554,0 1,-0.446 1,-1 V 13 3 2 C 14,1.446 13.554,1 13,1 Z M 4.890625,5.0058594 C 4.7460467,4.8561446 2,7.7005704 2,8 2,8.2994296 4.7460467,11.143855 4.890625,10.994141 4.9449819,10.937853 4.9728442,10.03354 4.9863281,9 H 7.75 C 7.8885,9 8,8.8885 8,8.75 V 7.25 C 8,7.1115 7.8885,7 7.75,7 H 4.9863281 C 4.9728442,5.9664603 4.9449819,5.0621475 4.890625,5.0058594 Z" style="opacity:1;vector-effect:none;fill:#000;fill-opacity:1;stroke:none;stroke-width:1;stroke-linecap:round;stroke-linejoin:round;stroke-miterlimit:4;stroke-dasharray:none;stroke-dashoffset:0;stroke-opacity:1"/></g></svg>