<svg xmlns="http://www.w3.org/2000/svg" xmlns:svg="http://www.w3.org/2000/svg" id="svg3870" width="16" height="16" version="1.1"><metadata id="metadata3875"/><g id="layer2"><path id="rect815" d="M 1.5,2 C 1.223,2 1,2.223 1,2.5 v 2 C 1,4.777 1.223,5 1.5,5 h 13 C 14.777,5 15,4.777 15,4.5 v -2 C 15,2.223 14.777,2 14.5,2 Z m 0,5 C 1.223,7 1,7.223 1,7.5 v 2 C 1,9.777 1.223,10 1.5,10 h 13 C 14.777,10 15,9.777 15,9.5 v -2 C 15,7.223 14.777,7 14.5,7 Z m 0,5 C 1.223,12 1,12.223 1,12.5 v 2 C 1,14.777 1.223,15 1.5,15 h 13 c 0.277,0 0.5,-0.223 0.5,-0.5 v -2 C 15,12.223 14.777,12 14.5,12 Z" style="opacity:1;vector-effect:none;fill:#000;fill-opacity:1;stroke:none;stroke-width:1;stroke-linecap:round;stroke-linejoin:round;stroke-miterlimit:4;stroke-dasharray:none;stroke-dashoffset:0;stroke-opacity:1"/></g></svg>