<svg xmlns="http://www.w3.org/2000/svg" xmlns:svg="http://www.w3.org/2000/svg" id="svg2985" width="16" height="16" version="1.1"><metadata id="metadata2990"/><g style="display:inline;opacity:1" id="layer2"><path id="rect815" d="M 5.2441406,1.0063437 C 5.1089387,0.9762987 5,1.063156 5,1.2016562 V 9.4902344 C 4.8330224,9.4749528 4.6774327,9.4453125 4.5,9.4453125 3.1192881,9.4453125 2,9.8954305 2,11 2,12.104569 3.1192881,13 4.5,13 5.8807119,13 7,12.104569 7,11 V 4.4453125 l 5,1.109375 v 5.9355465 c -0.166978,-0.01528 -0.322567,-0.04492 -0.5,-0.04492 -1.380712,0 -2.5,0.450119 -2.5,1.554688 0,1.104569 1.119288,2 2.5,2 1.380712,0 2.5,-0.895431 2.5,-2 V 3.2016562 C 14,3.0631561 13.891061,2.9270136 13.755859,2.8969687 Z" style="opacity:1;vector-effect:none;fill:#000;fill-opacity:1;stroke:none;stroke-width:1;stroke-linecap:round;stroke-linejoin:round;stroke-miterlimit:4;stroke-dasharray:none;stroke-dashoffset:0;stroke-opacity:1"/></g></svg>