<svg xmlns="http://www.w3.org/2000/svg" xmlns:svg="http://www.w3.org/2000/svg" id="svg2985" width="16" height="16" version="1.1"><metadata id="metadata2990"/><g style="opacity:1" id="layer2"><path id="rect815" d="m 14.484964,2.9994328 a 0.50004997,0.50004997 0 0 0 -0.34375,0.1523438 L 6.1529327,11.140058 a 0.50004997,0.50004997 0 1 0 0.7070312,0.707031 L 8.7076201,9.9994328 h 4.2929689 c 1.108,0 2,-0.892 2,-2 0,-1.108 -0.892,-2 -2,-2 H 12.70762 l 2.140625,-2.140625 a 0.50004997,0.50004997 0 0 0 -0.363281,-0.859375 z m -5.0000001,1 a 0.50004997,0.50004997 0 0 0 -0.34375,0.1523438 L 7.2935577,5.9994328 H 3.0005889 c -1.108,0 -2,0.892 -2,2 0,1.108 0.892,2 2,2 h 0.2929688 l -2.140625,2.1406252 a 0.50004997,0.50004997 0 1 0 0.7070312,0.707031 L 9.8482451,4.8588078 A 0.50004997,0.50004997 0 0 0 9.4849639,3.9994328 Z" style="opacity:1;vector-effect:none;fill:#000;fill-opacity:1;stroke:none;stroke-width:5.00031471;stroke-linecap:round;stroke-linejoin:round;stroke-miterlimit:4;stroke-dasharray:none;stroke-dashoffset:0;stroke-opacity:1"/></g></svg>