<svg xmlns="http://www.w3.org/2000/svg" xmlns:svg="http://www.w3.org/2000/svg" id="svg3892" width="16" height="16" version="1.1"><metadata id="metadata3897"/><g id="layer1"><path id="rect5505" d="M 1,0 1,1 2,1 2,2 1,2 1,1 0,1 0,5 1,5 1,4 2,4 2,5 1,5 1,6 2,6 2,7 1,7 1,8 0,8 l 0,3 1,0 0,-1 1,0 0,1 -1,0 0,1 -1,0 0,2 1,0 0,1 1,0 0,1 14,0 0,-2 -1,0 0,-1 -1,0 0,-1 1,0 0,-1 -1,0 0,-1 1,0 0,1 1,0 0,-6 -1,0 0,1 -1,0 0,-1 1,0 0,-1 -1,0 0,-1 1,0 0,-1 1,0 0,-2 z m 14,3 0,1 1,0 0,-1 z m 0,9 0,1 1,0 0,-1 z m -14,3 -1,0 0,1 1,0 z M 1,7 1,6 0,6 0,7 z m 4,-5 6,0 0,1 1,0 0,4 -1,0 0,1 -1,0 0,1 L 9,9 9,10 7,10 7,8 8,8 8,7 9,7 9,6 10,6 10,4 6,4 6,6 4,6 4,3 5,3 z m 2,10 2,0 0,2 -2,0 z" style="color:#000;fill:#000;fill-opacity:1;fill-rule:nonzero;stroke:none;stroke-width:8;marker:none;visibility:visible;display:inline;overflow:visible;enable-background:accumulate"/></g></svg>