<svg xmlns="http://www.w3.org/2000/svg" xmlns:svg="http://www.w3.org/2000/svg" id="svg2985" width="16" height="16" version="1.1"><metadata id="metadata2990"/><g id="layer2"><path id="rect815" d="M 4.25,4 C 4.1115,4 4,4.1115 4,4.25 v 7.5 C 4,11.8885 4.1115,12 4.25,12 h 2.5 C 6.8885,12 7,11.8885 7,11.75 V 4.25 C 7,4.1115 6.8885,4 6.75,4 Z m 5,0 C 9.1115,4 9,4.1115 9,4.25 v 7.5 C 9,11.8885 9.1115,12 9.25,12 h 2.5 C 11.8885,12 12,11.8885 12,11.75 V 4.25 C 12,4.1115 11.8885,4 11.75,4 Z" style="opacity:1;vector-effect:none;fill:#000;fill-opacity:1;stroke:none;stroke-width:5.00031471;stroke-linecap:round;stroke-linejoin:round;stroke-miterlimit:4;stroke-dasharray:none;stroke-dashoffset:0;stroke-opacity:1"/></g></svg>