<svg xmlns="http://www.w3.org/2000/svg" xmlns:svg="http://www.w3.org/2000/svg" id="svg3870" width="16" height="16" version="1.1"><metadata id="metadata3875"/><g id="layer2" style="display:inline"><path style="color:#000;display:inline;overflow:visible;visibility:visible;opacity:1;vector-effect:none;fill:#000;fill-opacity:1;fill-rule:nonzero;stroke:none;stroke-width:41.71699905;stroke-linecap:round;stroke-linejoin:round;stroke-miterlimit:4;stroke-dasharray:none;stroke-dashoffset:0;stroke-opacity:1;marker:none;enable-background:accumulate" id="rect815" d="m 11.005204,3.934136 c -0.09793,-0.097934 -0.255619,-0.097934 -0.353554,0 L 8,6.5857864 5.3483496,3.934136 c -0.097934,-0.097934 -0.2556191,-0.097934 -0.3535534,0 L 3.934136,4.9947962 c -0.097934,0.097934 -0.097934,0.2556191 0,0.3535534 L 6.5857864,8 3.934136,10.65165 c -0.097934,0.09793 -0.097934,0.25562 0,0.353554 l 1.0606602,1.06066 c 0.097934,0.09793 0.2556191,0.09793 0.3535534,0 L 8,9.4142136 10.65165,12.065864 c 0.09793,0.09793 0.25562,0.09793 0.353554,0 l 1.06066,-1.06066 c 0.09793,-0.09793 0.09793,-0.255619 0,-0.353554 L 9.4142136,8 12.065864,5.3483496 c 0.09793,-0.097934 0.09793,-0.2556191 0,-0.3535534 z"/></g></svg>