<svg xmlns="http://www.w3.org/2000/svg" xmlns:svg="http://www.w3.org/2000/svg" id="svg2985" width="16" height="16" version="1.1"><metadata id="metadata2990"/><g style="opacity:1" id="layer2"><path style="opacity:1;vector-effect:none;fill:#000;fill-opacity:1;stroke:none;stroke-width:5;stroke-linecap:round;stroke-linejoin:round;stroke-miterlimit:4;stroke-dasharray:none;stroke-dashoffset:0;stroke-opacity:1" id="rect817" d="M 6.5,1 C 3.453,1 1,3.453 1,6.5 1,9.547 3.453,12 6.5,12 7.7517703,12 8.8998933,11.581922 9.8222656,10.882812 l 3.8964844,3.896485 c 0.293803,0.293803 0.766744,0.293803 1.060547,0 0.293803,-0.293803 0.293803,-0.766744 0,-1.060547 L 10.882812,9.8222656 C 11.581921,8.8998933 12,7.7517703 12,6.5 12,3.453 9.547,1 6.5,1 Z m 0,1.5 c 2.216,0 4,1.784 4,4 0,2.216 -1.784,4 -4,4 -2.216,0 -4,-1.784 -4,-4 0,-2.216 1.784,-4 4,-4 z"/></g></svg>