<svg xmlns="http://www.w3.org/2000/svg" xmlns:svg="http://www.w3.org/2000/svg" id="svg2985" width="16" height="16" version="1.1"><metadata id="metadata2990"/><g style="display:inline;opacity:1" id="layer2"><path style="opacity:1;vector-effect:none;fill:#000;fill-opacity:1;stroke:none;stroke-width:1;stroke-linecap:round;stroke-linejoin:round;stroke-miterlimit:4;stroke-dasharray:none;stroke-dashoffset:0;stroke-opacity:1" id="rect815" d="M 4.5,1 C 4.223,1 4,1.223 4,1.5 V 2 C 4,2.554 4.446,3 5,3 V 7 C 3.892,7 3,7.892 3,9 V 9.5 C 3,9.777 3.223,10 3.5,10 h 3.25 v 4 L 7.5,15 8.25,14 V 10 H 11.5 C 11.777,10 12,9.777 12,9.5 V 9 C 12,7.892 11.108,7 10,7 V 3 c 0.554,0 1,-0.446 1,-1 V 1.5 C 11,1.223 10.777,1 10.5,1 Z"/></g></svg>