<svg xmlns="http://www.w3.org/2000/svg" xmlns:svg="http://www.w3.org/2000/svg" id="svg2985" width="16" height="16" version="1.1"><metadata id="metadata2990"/><g style="opacity:1" id="layer2"><path id="path819-6" d="M 8,3 A 7,5 0 0 0 1,8 v 1 a 7,5 0 0 0 1,2.5625 V 8 a 6,4 0 0 1 6,-4 6,4 0 0 1 6,4 v 3.564453 A 7,5 0 0 0 15,9 V 8 A 7,5 0 0 0 8,3 Z M 8,5 A 5,3 0 0 0 3,8 5,3 0 0 0 8,11 5,3 0 0 0 13,8 5,3 0 0 0 8,5 Z M 8,6.75 A 3,1.25 0 0 1 11,8 3,1.25 0 0 1 8,9.25 3,1.25 0 0 1 5,8 3,1.25 0 0 1 8,6.75 Z m 5,3.455078 a 6,4 0 0 1 -0.75,0.613281 v 2.146485 A 7,5 0 0 0 13,12.498047 Z m -10,0.002 v 2.285157 a 7,5 0 0 0 0.75,0.476562 V 10.834031 H 3.771484 A 6,4 0 0 1 3,10.207031 Z m 8,1.25 a 6,4 0 0 1 -0.875,0.28125 v 2.023438 a 7,5 0 0 0 0.875,-0.25 z m -6,0.002 v 2.052735 a 7,5 0 0 0 0.875,0.246093 V 11.736328 A 6,4 0 0 1 5,11.458984 Z m 3.625,0.515625 A 6,4 0 0 1 8,12 6,4 0 0 1 7.375,11.978516 v 1.998046 A 7,5 0 0 0 8,14 7,5 0 0 0 8.625,13.976562 Z" style="opacity:1;vector-effect:none;fill:#000;fill-opacity:1;stroke:none;stroke-width:1;stroke-linecap:round;stroke-linejoin:round;stroke-miterlimit:4;stroke-dasharray:none;stroke-dashoffset:0;stroke-opacity:1"/></g></svg>