<svg xmlns="http://www.w3.org/2000/svg" xmlns:svg="http://www.w3.org/2000/svg" id="svg8" width="105" height="69" version="1.1" viewBox="0 0 27.781 18.256"><metadata id="metadata5"/><g style="display:inline" id="layer2" transform="translate(-26.19375,-32.54375)"><path id="path850" d="m 28.575,49.212499 h -0.79375 v -2.38125 h -1.5875 v 3.96875 h 3.96875 l 0.264583,-0.264583 v -1.058333 h 8.995833 v 1.058333 l 0.264584,0.264583 h 12.699999 v -0.79375 h 0.79375 v -0.79375 h 0.79375 v -2.38125 h -0.79375 v 0.79375 h -1.5875 v -0.79375 h -0.79375 v -3.96875 h -0.79375 v -1.5875 h -0.79375 v -0.79375 h -1.5875 V 39.6875 H 38.1 l -0.264584,-0.264584 h -2.645833 v 1.058333 H 32.54375 v 0.79375 H 31.75 v 1.5875 h -0.79375 v 2.38125 h -1.5875 v 0.79375 H 28.575 v 2.38125 l 0.264583,0.264584 h 1.058333 L 30.1625,48.418749 v -0.79375 h 0.79375 v 0.79375 H 30.1625 l -0.264584,0.529167 h -1.058333 z" style="fill:#0f0f0f;fill-opacity:1;stroke-width:.264999"/></g><g style="display:inline" id="layer3" transform="translate(-26.19375,-32.54375)"><path style="fill:#3e3e3e;fill-opacity:1;stroke-width:1.00157" id="path853" d="m 137,152 v 5 h 3 l 1,-1 v -3 l -1,-1 z m 16,1 v 3 l 1,1 h 3 v -3 l -1,-1 z m 15,0 -1,1 v 3 h 3 l 1,-1 v -3 z m 19,14 -1,1 v 6 h 3 v -6 l -1,-1 z m -51,6 -1,1 v 12 l 1,1 h 4 l 1,-1 v -12 l -1,-1 z m 23,1 -1,1 v 3 h 5 v -3 l -1,-1 z m -5,2 -1,1 v 3 h 3 l 1,-1 v -3 z m 13,0 v 3 l 1,1 h 3 v -3 l -1,-1 z m -59,7 v 3 h 6 v -3 z" transform="scale(0.26458333)"/></g><g style="display:inline" id="layer4" transform="translate(-26.19375,-32.54375)"><path style="fill:#717171;fill-opacity:1;stroke-width:1.00157" id="path873" d="m 147,123 v 3 h 6 v 3 h 3 v -3 h 3 v -3 z m 6,6 h -3 v 3 h -3 v 3 h 12 v -3 h -6 z m 9,6 v 3 h 3 v 3 h -3 v 3 h 9 v -3 h -3 v -3 h 3 v -3 z m -18,18 v 3 h 3 l 1,-1 v -1 l -1,-1 z m 12,0 v 3 l 1,1 h 1 l 1,-1 v -3 z m 6,0 v 3 l 1,1 h 4 v 3 h 3 l 1,-1 v -3 h -3 v -3 z m -26,2 -1,1 v 3 l 1,1 h 4 l 1,-1 v -3 h -3 l -1,-1 z m 19,3 v 8 h 11 v -8 h -3 l -1,1 h -3 l -1,-1 z m 32,6 -1,1 v 3 h 3 v -3 l -1,-1 z m -51,6 -1,1 v 3 h 6 v -3 l -1,-1 z m -13,13 -1,1 v 3 h 3 l 1,-1 v -3 z" transform="scale(0.26458333)"/></g><g style="display:inline" id="layer5" transform="translate(-26.19375,-32.54375)"><path style="fill:#b2b2b2;fill-opacity:1;stroke-width:1.00157" id="path895" d="m 132,147 v 3 h -3 v 6 h 9 v -3 h 3 v -3 h 3 v -3 z m 21,9 v 21 h 3 v 3 h 12 v -3 h 3 v -18 h -3 v -3 h -6 v 3 h 3 v 6 h -9 v -6 h 3 v -3 z m 33,6 v 3 h 3 v -3 z m -50,2 -1,1 v 6 h 6 v -6 l -1,-1 z m 23,4 h 3 v 9 h -3 z m -42,15 v 3 h -3 v 6 h 36 v -6 h -27 v -3 z" transform="scale(0.26458333)"/></g><g id="layer6" transform="translate(-26.19375,-32.54375)"><path style="fill:#d7d7d7;fill-opacity:1;stroke-width:1.00157" id="path910" d="m 147,153 v 3 h 3 v -3 z m 27,0 v 3 h 6 v -3 z m 6,3 v 6 h 6 v -6 z m -45,3 v 6 h 6 v -6 z" transform="scale(0.26458333)"/></g></svg>