<svg xmlns="http://www.w3.org/2000/svg" xmlns:svg="http://www.w3.org/2000/svg" id="svg8" width="114" height="126" version="1.1" viewBox="0 0 30.163 33.337"><metadata id="metadata5"/><g style="display:inline" id="layer2" transform="translate(-7.1437499,-17.4625)"><path style="fill:#0f0f0f;fill-opacity:1;stroke:none;stroke-width:1.135;stroke-linecap:round;stroke-linejoin:round" id="path850" d="m 95,89 v 17 h 3 v 37 h -3 v 6 l 2,2 h 21 v -3 h 13 l 1,-1 v -3 l -1,-1 v -1 l 2,-2 v -6 h -5 v -16 l 1,-1 v -3 l -1,-1 v -1 l 1,-1 h 3 v -3 l 1,-1 h 1 v -7 l 1,-1 v -9 l -1,-1 z m 27,60 v 5 h 3 v 3 h 5 v -5 h -3 v -3 z m -18,6 v 5 h 5 v -5 z m -7,12 -1,1 v 3 h -3 v 6 h 6 v -3 h 3 l 1,1 h 4 v 1 l 1,1 h 6 v -3 h 3 l 1,-1 v -6 h -6 l -2,2 v 1 h -7 v -3 z m -49,1 v 6 h 3 v 15 h 3 v 3 h 18 v -3 h 3 v -15 h 3 v -6 h -6 l -1,1 H 52 l -1,-1 z" transform="scale(0.26458333)"/></g><g style="display:inline" id="layer3" transform="translate(-7.1437499,-17.4625)"><path style="fill:#3e3e3e;fill-opacity:1;stroke:none;stroke-width:1.135;stroke-linecap:round;stroke-linejoin:round" id="path862" d="m 114,66 -1,1 V 83 H 94 l -1,1 v 9 l 1,1 h 1 l 1,-1 v -3 l 1,-1 h 19 l 1,1 v 3 l 1,1 h 3 v -5 h 7 l 1,1 h 9 v -3 h -3 V 75 h -3 v -3 h -3 v -3 h -6 v -3 z m -51,48 v 3 h -3 v 6 l -1,1 h -6 l -2,2 h -3 v -3 H 36 v 3 h -3 v 3 h -3 v 6 h -3 v 6 h 3 v -3 h 3 l 1,-1 v -3 h 10 l 2,2 h 7 l 1,-1 h 3 l 1,1 v 1 l -1,1 v 3 h 3 l 1,1 v 1 l -1,1 v 6 l 1,1 v 1 l -1,1 v 3 l 1,1 v 1 l -1,1 v 3 l 1,1 v 1 l -1,1 v 3 l 1,1 h 7 v 1 l 1,1 h 3 v -3 h -3 v -3 l -3,-3 v -3 l -1,-1 v -1 l 1,-1 v -3 l -1,-1 v -1 l 1,-1 v -3 l -1,-1 v -1 l 1,-1 v -6 h 3 v -9 l 1,-1 v -1 l -1,-1 h -3 v 6 h -3 l -1,-1 v -4 l 1,-1 h 3 v -3 h 3 l 1,-1 h 7 v 6 l 1,1 h 3 v 6 h 3 v -18 h -3 v -3 h -6 v 3 l -1,1 h -1 l -1,-1 v -3 z m 59,2 v 3 h -3 v 3 h -4 l -1,1 v 6 h 3 v 3 l 1,1 v 1 l -1,1 h -3 v -6 h -3 l -1,1 h -7 l -1,-1 h -3 l -1,1 v 4 h -6 v 2 l -2,2 v 3 l 1,1 v 1 l -1,1 v 3 h 3 v 3 h 3 v -6 h 6 v -3 h -3 l -1,-1 v -1 l 1,-1 v -3 h 3 l 1,1 h 10 v 1 h -10 l -1,1 v 3 h 3 l 1,1 h 3 v 4 h 4 l 1,1 h 3 v -3 h 3 v -3 h 3 v -3 h 3 v -3 h 3 v 3 h 3 v 3 h 3 v -9 h -3 v -12 h -3 v -3 h -3 l -1,-1 z m 10,25 h -9 v 3 h 9 z m -15,6 v 3 l 1,1 h 4 l 1,-1 h 3 v 3 h 3 v 3 l 1,1 h 1 l 1,-1 v -3 h 3 v -6 z m 9,6 h -3 l -1,1 v 3 h 3 l 1,-1 z m -24,-30 v 3 h 3 v -3 z m 3,27 -1,1 v 4 h -3 v 5 h 3 l 1,-1 v -3 h 3 l 1,-1 v -1 h 3 v -3 l -1,-1 z m 11,5 v 5 h 5 v -5 z m -62,19 v 12 h 3 v 3 h 9 v -3 h 3 v -12 h -6 l -1,1 h -4 l -1,-1 z" transform="scale(0.26458333)"/></g><g style="display:inline" id="layer4" transform="translate(-7.1437499,-17.4625)"><path style="fill:#717171;fill-opacity:1;stroke:none;stroke-width:1.135;stroke-linecap:round;stroke-linejoin:round" id="path878" d="m 105,66 v 3 h -6 v 3 h -3 v 3 h -3 v 9 h 33 v -6 h -3 v -6 h -3 v -3 h -6 V 66 Z M 90,87 v 3 h 9 l 1,1 h 13 l 1,-1 h 6 l 1,1 h 1 l 1,-1 h 6 v -3 z m 6,6 -1,1 v 3 h 3 l 1,-1 v -3 z m 18,0 v 3 l 1,1 h 3 v -3 l -1,-1 z m 9,3 -1,1 v 1 l 1,1 h 6 v -3 z m 0,6 -1,1 v 1 l 1,1 h 6 l 1,-1 v -1 l -1,-1 z m -54,15 v 12 h 3 v 6 h 3 v 6 h 3 v -21 h -3 v -3 z m 28,5 -1,1 v 3 h -3 v 6 h -3 v 6 h 3 v -3 h 6 v -12 l -1,-1 z m -4,16 v 3 h 6 v -3 z m 0,3 h -3 v 3 h 3 z M 51,123 v 6 h 3 v 3 h 3 v 6 h 3 v 6 h 3 v -18 h -3 v -3 z m 12,21 v 3 h 3 v -3 z m -9,-12 h -6 v 3 h -3 v 15 h 3 v 6 h 3 v -9 h 3 z m -9,3 v -3 h 3 v -6 h -9 v 3 h -3 v 3 h -3 v 18 h 3 v -6 h 3 v -6 h 3 v -3 z m 75,-12 v 3 h -3 v 3 h 3 v 3 h -3 v 6 h -3 v 3 h -9 v 3 h 3 v 3 h 6 v -3 h 3 v -3 h 3 v -3 h 3 v -6 h 3 v -9 z m -6,15 v -3 h -12 v 3 z m -12,-9 v 3 h 9 v -3 z m -42,21 v 3 h 6 v -3 z m 36,0 v 3 h -3 v 9 h 3 v 6 h 8 v 23 l 1,1 h 3 v -21 -9 h 3 v 6 h 6 l 1,-1 v -7 l -1,-1 v -3 h 3 l 1,1 h 1 l 1,-1 v -6 h -12 v 3 h -3 v 6 l -1,1 h -4 l -1,-1 v -3 h 3 v -6 z m -36,6 v 3 h 6 v -3 z m 73,5 -1,1 v 30 h 3 l 1,-1 v -30 z m -73,1 v 3 h 9 v -3 z m -9,6 v 3 h 3 l 1,-1 h 7 l 1,1 h 6 v -3 h -6 l -1,1 h -7 l -1,-1 z m 6,6 v 6 h 6 v -6 z m 0,9 v 3 h 3 v -3 z" transform="scale(0.26458333)"/></g><g style="display:inline" id="layer5" transform="translate(-7.1437499,-17.4625)"><path style="fill:#b2b2b2;fill-opacity:1;stroke:none;stroke-width:1.135;stroke-linecap:round;stroke-linejoin:round" id="path920" d="m 102,72 v 6 h 6 v -6 z m 9,0 v 3 h 3 V 72 Z M 99,90 v 3 h 3 l 1,1 h 7 l 1,-1 h 3 v -3 z m 21,0 v 3 l 1,1 h 1 l 1,-1 v -3 z m -30,9 v 9 h 3 l 1,-1 v -7 l -1,-1 z m 40,2 -1,1 v 3 l 1,1 h 3 v -5 z m -4,7 -1,1 v 4 h -3 v 3 h -3 v 3 h -3 v 3 l 1,1 h 3 v -3 h 3 v -3 h 3 v -3 h 3 v -6 z m -6,48 v 3 h -3 v 21 l -1,1 v 1 l 2,2 h 1 v 7 l 1,1 h 3 v -9 h 12 v 9 h 3 v -30 h 3 v -6 z m -18,3 v 24 l 1,1 h 1 l 2,-2 v -1 l -1,-1 v -9 l 1,-1 v -1 l -1,-1 v -6 h 3 v -3 z m 21,3 h 12 v 6 h -12 z m -69,6 v 3 h 9 v -3 z m 69,3 h 12 v 9 h -12 z" transform="scale(0.26458333)"/></g><g style="display:inline;opacity:1" id="layer6" transform="translate(-7.1437499,-17.4625)"><path style="fill:#d7d7d7;fill-opacity:1;stroke:none;stroke-width:1.135;stroke-linecap:round;stroke-linejoin:round" id="path950" d="m 93,93 v 27 h 3 v 3 h 3 v -3 h 12 v 3 h 6 v -3 h 3 v -3 h 3 v -3 h 3 v -6 h -3 V 93 h -6 v 3 h -6 v -3 h -9 v 3 h -6 v -3 z m 3,6 6,0 1,1 v 4 l -1,1 h -6 z m 15,0 h 6 v 6 h -6 z m 18,0 v 3 h 3 v 3 h -3 v 3 h 6 v -9 z m -30,12 h 12 v 3 H 99 Z m 6,57 v 3 h 6 v -3 z m 0,12 v 3 h 12 v -3 z m 12,3 v 9 h 3 v -9 z m -12,0 h -3 v 9 h 3 z" transform="scale(0.26458333)"/></g><g style="display:inline" id="layer7" transform="translate(-7.1437499,-17.4625)"><path id="path974" d="M 26.9875,26.19375 H 28.575 V 28.575 h -1.5875 z" style="fill:#ff3fac;fill-opacity:1;stroke:none;stroke-width:.300302;stroke-linecap:round;stroke-linejoin:round"/></g><g style="display:inline" id="layer8" transform="translate(-7.1437499,-17.4625)"><path style="fill:#cf0;fill-opacity:1;stroke:none;stroke-width:1.135;stroke-linecap:round;stroke-linejoin:round" id="path977" d="m 72,120 v 6 h 3 v -6 z m -18,6 v 3 h 3 v -3 z m 3,3 v 3 h 3 v -3 z m -18,0 v 3 h 3 v -3 z m 0,3 h -3 v 3 h 3 z m 9,3 v 6 h 3 v -6 z" transform="scale(0.26458333)"/></g></svg>